<?xml version="1.0" encoding="UTF-8" standalone="no"?>
<!-- Created with Inkscape (http://www.inkscape.org/) -->

<svg
   width="512"
   height="512"
   viewBox="0 0 512 512"
   version="1.1"
   id="svg1"
   inkscape:version="1.4.2 (ebf0e940d0, 2025-05-08)"
   sodipodi:docname="logo.svg"
   xml:space="preserve"
   inkscape:export-filename="logo.png"
   inkscape:export-xdpi="96"
   inkscape:export-ydpi="96"
   xmlns:inkscape="http://www.inkscape.org/namespaces/inkscape"
   xmlns:sodipodi="http://sodipodi.sourceforge.net/DTD/sodipodi-0.dtd"
   xmlns="http://www.w3.org/2000/svg"
   xmlns:svg="http://www.w3.org/2000/svg"><sodipodi:namedview
     id="namedview1"
     pagecolor="#505050"
     bordercolor="#eeeeee"
     borderopacity="1"
     inkscape:showpageshadow="0"
     inkscape:pageopacity="0"
     inkscape:pagecheckerboard="0"
     inkscape:deskcolor="#3f3f3f"
     inkscape:document-units="px"
     showgrid="true"
     showguides="true"
     inkscape:lockguides="false"
     inkscape:zoom="1"
     inkscape:cx="51.5"
     inkscape:cy="302.5"
     inkscape:window-width="1920"
     inkscape:window-height="1011"
     inkscape:window-x="0"
     inkscape:window-y="0"
     inkscape:window-maximized="1"
     inkscape:current-layer="layer5"><inkscape:grid
       id="grid1"
       units="px"
       originx="0"
       originy="0"
       spacingx="1"
       spacingy="1"
       empcolor="#0f0f0f"
       empopacity="0.30196078"
       color="#101010"
       opacity="0.14901961"
       empspacing="25"
       enabled="true"
       visible="true"
       dotted="true" /></sodipodi:namedview><defs
     id="defs1" /><g
     inkscape:label="Layer 1"
     inkscape:groupmode="layer"
     id="layer1" /><g
     inkscape:groupmode="layer"
     id="layer3"
     inkscape:label="RustCrab"
     style="display:inline"><g
       id="g34"
       inkscape:label="Crab"
       transform="matrix(1.5274489,0,0,1.5274489,-168.22264,-213.79026)"><path
         style="display:inline;fill:#8c1c17;fill-opacity:1"
         d="m 140.44561,364.41106 c 0,0 40.84636,49.49012 43.6925,46.64398 2.84614,-2.84614 -2.84614,-24.70045 -2.84614,-24.70045 0,0 40.08596,10.97566 100.74926,10.97566 60.6633,0 102.92636,-14.9502 102.92636,-14.9502 0,0 -10.58209,25.02162 -8.00333,29.48817 2.57876,4.46655 39.03281,-41.26906 39.03281,-41.26906 L 405.38036,354.49218 H 151.80201 Z"
         id="path4"
         inkscape:label="BackBody" /><path
         style="fill:#e53717;fill-opacity:1"
         d="m 176.67108,371.02365 c 0,0 1.2219,19.19088 13.08143,31.05041 11.85953,11.85953 18.97525,12.50642 18.97525,12.50642 0,0 -3.67959,19.4705 15.38145,30.4754 19.06104,11.00489 33.7817,5.75007 33.7817,5.75007 l -17.82524,-23.43156 38.66926,2.01253 c 0,0 2.30003,-23.28781 -21.85028,-33.35044 -24.15032,-10.06263 -39.67553,4.02505 -39.67553,4.02505 0,0 -10.35014,-1.00626 -16.24396,-9.48762 -5.89383,-8.48136 -4.74382,-18.25649 -4.74382,-18.25649 z"
         id="path2"
         inkscape:label="ArmLeft" /><path
         style="display:inline;fill:#e53717;fill-opacity:1"
         d="m 382.81131,368.00486 c 0,0 -1.00626,12.65017 -9.63138,27.31286 -8.62511,14.66269 -19.98151,17.53773 -19.98151,17.53773 0,0 5.16426,13.54843 -9.87963,28.28738 -15.0439,14.73895 -37.1015,9.7582 -37.1015,9.7582 l 18.49992,-22.97243 -38.93116,2.64284 c 0,0 -3.65932,-20.73618 18.09334,-32.62899 21.75266,-11.89281 40.25258,0.30495 40.25258,0.30495 0,0 8.27581,0.66412 14.31339,-10.47665 6.03758,-11.14078 4.08489,-14.52875 4.08489,-14.52875 z"
         id="path3"
         inkscape:label="ArmRight" /><g
         id="g24"
         inkscape:label="Spikes"
         transform="translate(86.25114,181.12739)"><path
           style="display:inline;fill:#e53717;fill-opacity:1"
           d="m 177.8839,55.906369 c 0,0 8.79255,-20.278764 13.7733,-20.278764 4.98075,0 13.77329,20.177116 13.77329,20.177116 z"
           id="path7"
           inkscape:label="Spike"
           inkscape:transform-center-y="-115.86403" /><path
           style="fill:#e53717;fill-opacity:1"
           d="m 206.49508,54.913131 c 0,0 13.74148,-17.312103 18.55251,-16.02299 4.81104,1.289113 8.08176,23.054388 8.08176,23.054388 z"
           id="path8"
           inkscape:label="Spike"
           inkscape:transform-center-y="-110.21704"
           inkscape:transform-center-x="-27.37671" /><path
           style="fill:#e53717;fill-opacity:1"
           d="m 234.14425,60.042444 c 0,0 16.2357,-14.997973 20.79188,-12.985745 4.55618,2.012229 4.44766,24.021612 4.44766,24.021612 z"
           id="path9"
           inkscape:label="Spike" /><path
           style="fill:#e53717;fill-opacity:1"
           d="m 259.50213,72.252928 c 0,0 19.1548,-11.028656 23.15201,-8.0571 3.99721,2.97156 -0.98433,24.410053 -0.98433,24.410053 z"
           id="path10"
           inkscape:label="Spike" /><path
           style="fill:#e53717;fill-opacity:1"
           d="m 282.47596,88.996857 c 0,0 20.90235,-7.185317 24.26162,-3.50793 3.35927,3.677384 -5.60776,23.777573 -5.60776,23.777573 z"
           id="path11"
           inkscape:label="Spike" /><path
           style="fill:#e53717;fill-opacity:1"
           d="m 150.78636,62.260456 c 0,0 3.24442,-21.863461 8.05546,-23.152574 4.81103,-1.289113 18.5262,15.924808 18.5262,15.924808 z"
           id="path12"
           inkscape:label="Spike"
           inkscape:transform-center-y="-110.16814"
           inkscape:transform-center-x="27.376705" /><path
           style="fill:#e53717;fill-opacity:1"
           d="m 125.39127,73.631146 c 0,0 -0.53553,-22.096389 3.98481,-24.187875 4.52036,-2.091485 20.9728,12.528431 20.9728,12.528431 z"
           id="path13"
           inkscape:label="Spike" /><path
           style="fill:#e53717;fill-opacity:1"
           d="m 102.5481,90.36623 c 0,0 -4.839569,-21.566545 -0.81458,-24.500378 4.02498,-2.933835 23.01532,8.192338 23.01532,8.192338 z"
           id="path14"
           inkscape:label="Spike" /><path
           style="fill:#e53717;fill-opacity:1"
           d="m 83.50224,110.63026 c 0,0 -8.370057,-20.456771 -4.890998,-24.021037 3.47906,-3.564269 24.059578,4.237449 24.059578,4.237449 z"
           id="path15"
           inkscape:label="Spike" /><path
           style="fill:#e53717;fill-opacity:1"
           d="m 67.854626,133.92272 c 0,0 -11.625232,-18.79871 -8.780776,-22.88734 2.844462,-4.08863 24.428933,0.21664 24.428933,0.21664 z"
           id="path16"
           inkscape:label="Spike" /><path
           style="fill:#e53717;fill-opacity:1"
           d="m 59.025224,159.69443 c 0,0 -15.666718,-15.59138 -13.847648,-20.22806 1.819069,-4.63669 23.813586,-5.45277 23.813586,-5.45277 z"
           id="path17"
           inkscape:label="Spike" /><path
           style="fill:#e53717;fill-opacity:1"
           d="m 301.53657,109.59071 c 0,0 21.87842,-3.14197 24.48925,1.09967 2.61081,4.24164 -9.96325,22.30591 -9.96325,22.30591 z"
           id="path18"
           inkscape:label="Spike" /><path
           style="fill:#e53717;fill-opacity:1"
           d="m 316.27297,133.52549 c 0,0 22.01703,1.94635 23.58829,6.67277 1.57124,4.72642 -14.80183,19.43515 -14.80183,19.43515 z"
           id="path6"
           inkscape:label="Spike" /></g><path
         style="display:inline;fill:#e53717;fill-opacity:1"
         d="m 152.66452,367.42985 c 0,0 58.07577,23.86282 129.66421,23.86282 71.58845,0 122.28377,-26.94486 122.28377,-26.94486 0,0 0.0491,7.6821 -5.98848,34.99496 -6.03758,27.31287 -4.45631,36.22548 -3.01879,36.80049 1.43752,0.57501 7.3809,-5.16523 18.96877,-22.44538 11.58786,-17.28015 19.92299,-37.20314 19.92299,-37.20314 0,0 5.87076,-11.57353 -2.23625,-25.61528 -8.10701,-14.04175 -16.06038,-12.60435 -16.06038,-12.60435 0,0 -30.69768,-103.4776 -135.19176,-103.4776 -104.49409,0 -140.68075,103.6809 -140.68075,103.6809 0,0 -14.40119,4.94488 -19.79188,20.18258 -5.3907,15.2377 4.38443,27.16911 4.38443,27.16911 0,0 38.81301,51.75068 45.4256,48.87564 6.61259,-2.87504 -17.68148,-67.27589 -17.68148,-67.27589 z"
         id="path1"
         inkscape:label="MainBody" /><g
         id="g22"
         inkscape:label="EyeLeft"
         style="display:inline"
         transform="translate(86.25114,181.12739)"><path
           style="display:inline;fill:#010000;fill-opacity:1"
           d="m 161.14588,142.88939 c 0,0 -19.40651,2.15628 -19.40651,25.58784 0,23.43156 32.48793,28.60662 39.53178,7.7626 7.04384,-20.84403 -8.19386,-34.21295 -20.12527,-33.35044 z"
           id="path19"
           inkscape:label="p1" /><ellipse
           style="display:inline;fill:#ffffff;fill-opacity:1"
           id="path21"
           cx="154.53329"
           cy="156.68956"
           rx="8.7688656"
           ry="12.362663"
           inkscape:label="p2" /></g><g
         id="g23"
         inkscape:label="EyeRight"
         transform="translate(86.25114,181.12739)"><path
           style="display:inline;fill:#010000;fill-opacity:1"
           d="m 228.27802,142.60188 c 0,0 -20.98778,2.15628 -18.97525,27.88787 2.01252,25.73159 40.68178,22.85656 39.53177,-3.16254 -1.15002,-26.01909 -20.55652,-24.72533 -20.55652,-24.72533 z"
           id="path20"
           inkscape:label="p1" /><ellipse
           style="display:inline;fill:#ffffff;fill-opacity:1"
           id="path21-0"
           cx="223.58159"
           cy="156.04416"
           rx="8.7688656"
           ry="12.362663"
           inkscape:label="p2" /></g></g></g><g
     inkscape:groupmode="layer"
     id="layer5"
     inkscape:label="WizHat"><g
       id="g33"
       inkscape:label="Hat"
       transform="matrix(1.5274489,0,0,1.5274489,-161.86107,-226.35646)"><path
         style="fill:#502066;fill-opacity:1;stroke-width:2.03181"
         d="m 271.63778,242.27579 c 0,0 -114.64675,34.24601 -106.64566,63.40387 5.30287,19.32489 59.25979,15.91202 109.84892,10.62204 31.6891,-3.31367 61.78039,-20.47436 75.57961,-33.58396 13.93455,-13.23816 13.34812,-41.03577 2.34482,-46.40613 -11.51297,-5.61909 -34.2903,-6.38522 -81.12769,5.96418 z"
         id="path24-2"
         sodipodi:nodetypes="cssssc"
         inkscape:label="s1" /><path
         style="fill:#712d90;fill-opacity:1;stroke-width:1.99499"
         d="m 269.50269,235.43921 c 0,0 -112.56922,33.62544 -104.71309,62.25493 5.20678,18.97469 58.18591,15.62367 107.8583,10.42955 31.11486,-3.25363 60.66088,-20.10334 74.21003,-32.97535 13.68206,-12.9983 13.10624,-40.29219 2.30231,-45.56521 -11.30435,-5.51728 -33.66892,-6.26951 -79.65755,5.85608 z"
         id="path24-2-2"
         sodipodi:nodetypes="cssssc"
         inkscape:label="p1" /><g
         id="g32"
         inkscape:label="star"
         transform="matrix(1.4040287,-0.2474249,0.25530343,1.3607011,-187.00991,-27.859976)"><path
           style="fill:#b59200;fill-opacity:1"
           d="m 324.168,202.67329 -1.37225,-2.1219 -1.13083,2.99862 z"
           id="path29"
           inkscape:label="s4" /><path
           style="fill:#b59200;fill-opacity:1"
           d="m 297.55937,212.94963 0.0773,2.43068 2.82843,-1.66833 z"
           id="path30"
           inkscape:label="s3" /><path
           style="fill:#b59200;fill-opacity:1"
           d="m 325.27344,217.73437 1.46093,2.5 -2.09375,-2.57031 z"
           id="path31"
           inkscape:label="s2" /><path
           sodipodi:type="star"
           style="fill:#b59200;fill-opacity:1"
           id="path28-3"
           inkscape:flatsided="false"
           sodipodi:sides="5"
           sodipodi:cx="250.41582"
           sodipodi:cy="140.58936"
           sodipodi:r1="14.09062"
           sodipodi:r2="7.0453095"
           sodipodi:arg1="1.5707963"
           sodipodi:arg2="2.1991149"
           inkscape:rounded="-3.469447e-18"
           inkscape:randomized="2.7755576e-17"
           d="m 250.41582,154.67998 -4.14113,-8.39085 -9.25985,-1.34553 6.70049,-6.53137 -1.58177,-9.22243 8.28226,4.35425 8.28226,-4.35425 -1.58178,9.22244 6.70049,6.53136 -9.25984,1.34553 z"
           inkscape:transform-center-y="0.66951401"
           transform="matrix(1.0903486,0.18296516,-0.18808165,1.0606872,66.420877,18.277333)"
           inkscape:transform-center-x="0.81894689"
           inkscape:label="s1" /><path
           sodipodi:type="star"
           style="fill:#ffc910;fill-opacity:1"
           id="path28"
           inkscape:flatsided="false"
           sodipodi:sides="5"
           sodipodi:cx="250.41582"
           sodipodi:cy="140.58936"
           sodipodi:r1="14.09062"
           sodipodi:r2="7.0453095"
           sodipodi:arg1="1.5707963"
           sodipodi:arg2="2.1991149"
           inkscape:rounded="-3.469447e-18"
           inkscape:randomized="2.7755576e-17"
           d="m 250.41582,154.67998 -4.14113,-8.39085 -9.25985,-1.34553 6.70049,-6.53137 -1.58177,-9.22243 8.28226,4.35425 8.28226,-4.35425 -1.58178,9.22244 6.70049,6.53136 -9.25984,1.34553 z"
           inkscape:transform-center-y="0.65539074"
           transform="matrix(1.0383117,0.17910546,-0.17910546,1.0383117,77.368399,20.030243)"
           inkscape:transform-center-x="0.77986162"
           inkscape:label="p1" /></g><path
         style="fill:#502066;fill-opacity:1;stroke-width:1.40486"
         d="m 305.90529,176.66226 c 0,0 -45.11859,7.34481 -26.97146,38.49889 18.14713,31.15407 -36.73387,-20.19993 -20.5324,-30.53165 16.20144,-10.33173 47.50386,-7.96724 47.50386,-7.96724 z"
         id="path27"
         inkscape:label="s2" /><path
         style="fill:#712d90;fill-opacity:1;stroke-width:1.40486"
         d="m 208.59624,270.90059 c 0,0 -16.58757,-42.99498 -2.36833,-74.07791 14.21925,-31.08292 82.74441,-31.64763 94.0308,-22.6193 2.59375,2.07482 4.77462,3.19905 6.75724,5.88767 3.17886,4.31075 2.65563,7.85204 1.40177,7.66332 -7.60268,-1.14434 -13.24684,-3.09169 -21.94869,-2.7065 -26.10799,1.15567 -21.6715,12.962 -15.56049,19.60091 6.111,6.63891 35.05719,37.54507 35.05719,37.54507 0,0 -45.31414,60.9442 -97.36949,28.70674 z"
         id="path26"
         sodipodi:nodetypes="csssssscc"
         inkscape:label="p2" /><path
         style="fill:#ffc910;fill-opacity:1;stroke-width:1.79598"
         d="m 310.75853,245.89206 c 0,0 5.61194,6.77723 -10.0381,20.78318 -9.97922,8.93084 -17.41105,9.80681 -33.51101,15.56049 -53.63625,19.16817 -59.9944,-6.01508 -59.9944,-6.01508 l -0.61331,-9.85071 c 0,0 5.19026,10.09002 20.92805,9.0345 23.00307,-1.54278 44.53533,-10.04566 58.06825,-19.49743 15.76063,-11.00766 15.2304,-19.40804 15.2304,-19.40804 z"
         id="path25"
         sodipodi:nodetypes="cssccsscc"
         inkscape:label="o1" /></g></g></svg>
